<?xml version="1.0" encoding="UTF-8" standalone="no"?>
<!-- Created with Inkscape (http://www.inkscape.org/) -->

<svg
   xmlns:dc="http://purl.org/dc/elements/1.1/"
   xmlns:cc="http://creativecommons.org/ns#"
   xmlns:rdf="http://www.w3.org/1999/02/22-rdf-syntax-ns#"
   xmlns:svg="http://www.w3.org/2000/svg"
   xmlns="http://www.w3.org/2000/svg"
   xmlns:sodipodi="http://sodipodi.sourceforge.net/DTD/sodipodi-0.dtd"
   xmlns:inkscape="http://www.inkscape.org/namespaces/inkscape"
   width="930"
   height="200"
   id="svg3950"
   version="1.1"
   inkscape:version="0.48.4 r9939"
   sodipodi:docname="logo_boisdecombiermushroomblanc2.svg">
  <defs
     id="defs3952" />
  <sodipodi:namedview
     id="base"
     pagecolor="#ffffff"
     bordercolor="#666666"
     borderopacity="1.0"
     inkscape:pageopacity="0.0"
     inkscape:pageshadow="2"
     inkscape:zoom="0.98994949"
     inkscape:cx="256.98723"
     inkscape:cy="177.14286"
     inkscape:document-units="px"
     inkscape:current-layer="layer1"
     showgrid="false"
     inkscape:window-width="1266"
     inkscape:window-height="723"
     inkscape:window-x="141"
     inkscape:window-y="58"
     inkscape:window-maximized="0"
     showguides="true"
     inkscape:guide-bbox="true" />
  <metadata
     id="metadata3955">
    <rdf:RDF>
      <cc:Work
         rdf:about="">
        <dc:format>image/svg+xml</dc:format>
        <dc:type
           rdf:resource="http://purl.org/dc/dcmitype/StillImage" />
        <dc:title></dc:title>
      </cc:Work>
    </rdf:RDF>
  </metadata>
  <g
     inkscape:label="Calque 1"
     inkscape:groupmode="layer"
     id="layer1"
     transform="translate(0,-852.36218)">
    <path
       style="fill:#ffffff;fill-opacity:1;stroke:none"
       d="m 215.50711,886.46478 c -1.2981,0.1161 -2.1375,1.7499 -0.9375,4.75 2.1334,5.3334 5.4059,12.4424 6.625,15.7187 -6.4849,1.256 -21.131,5.7272 -31.9688,8.875 -10.0834,2.7168 -7.3757,8.9641 2.0938,5.9688 7.3144,-2.1334 23.6266,-7.0229 32.3125,-9.1563 1.8286,2.8953 10.6422,21.8049 12.9375,26.6875 -3.2001,1.2191 -14.694,4.7339 -19.875,6.5625 -5.1811,1.8286 -1.6588,7.4497 5.7187,5.4688 7.1621,-1.981 13.5069,-3.5686 17.6875,-4.5 2.1334,3.8096 12.1634,30.999 14.9063,34.6562 2.7429,3.6572 7.4803,2.1537 7.9375,-2.875 0.4571,-5.0287 -3.0422,-10.5306 -5.9375,-12.9687 -2.8953,-2.4382 -4.0549,1.4559 -1.6875,3.5 1.0403,1.6379 2.4262,3.1004 2.75,4.75 1.5238,3.8096 0.2492,7.5658 -2.5938,1.0625 -1.981,-3.8096 -8.973,-25.4226 -10.4062,-29.4063 5.0318,-2.2596 12.7038,-5.9414 26.1875,-11.0625 12.1907,-3.5048 30.6978,-6.6298 50.8125,-3.125 20.1146,3.5048 10.0486,16.3151 3.3437,21.3438 -6.7048,5.0286 -45.029,27.4806 -65.5,33.9687 -6.2477,2.2858 -23.1788,3.8125 -26.5312,3.8125 -3.3525,0 -7.9191,-0.7693 -3.5,-1.5312 4.4191,-0.762 1.9411,-0.423 8.375,-0.9063 7.6192,-0.9143 4.8759,-5.9414 1.2187,-6.0937 -3.6572,-0.1524 -12.5022,1.8392 -18.75,4.125 -9.2648,3.1477 -6.9864,8.5154 0.9375,9.125 7.924,0.6095 25.5787,0.9346 38.5313,-2.875 12.9526,-3.8096 54.5719,-21.8138 77.875,-43.4375 9.2954,-9.4478 -3.1266,-21.8825 -11.8125,-23.4063 -8.6859,-1.5238 -29.0321,-1.5624 -34.5,-1.125 4.8763,-3.6572 7.9056,-7.4678 10.3437,-11.125 2.4382,-3.6572 0.9365,-13.1012 -10.1875,-14.625 -11.124,-1.5238 -48.472,2.8094 -65.8437,7 -1.5239,-2.4381 -5.6402,-12.5106 -7.4688,-16.625 -0.8,-1.8 -2.0841,-2.6216 -3.0937,-2.5312 z m 67.7187,18.0625 c 6.356,0.055 10.8977,0.8367 11.8438,2.7187 3.3638,6.6917 -13.5877,16.9836 -21.9688,20.0313 -8.3811,3.0476 -23.942,8.0303 -31.5,9.4375 -1.5238,-3.6573 -8.8154,-18.299 -12.625,-25.1563 9.9669,-2.6286 38.0071,-7.1725 54.25,-7.0312 z"
       id="path4026"
       inkscape:connector-curvature="0" />
    <path
       style="fill:#ffffff;fill-opacity:1;stroke:none"
       d="m 346.60481,956.74438 c -4.5649,1.5474 -11.886,8.4573 -12.6479,14.5527 -0.7619,6.0953 1.9048,9.9049 2.8191,10.8192 0.9143,0.9143 4.6477,4.0382 12.1145,4.1144 11.0478,-0.076 21.7147,-9.0668 21.7147,-18.5908 0.076,-3.4287 -1.5238,-7.4478 -4.1905,-9.8383 -2.6668,-2.3905 -5.562,-2.9239 -8.1526,-3.7239 -2.5905,-0.8 -4.1162,4.0766 0.381,4.343 4.4972,0.2663 7.3906,5.181 7.2382,9.3716 -0.1524,4.1905 -4.6477,14.2479 -17.4479,14.324 -5.3335,-0.076 -10.3621,-2.4381 -10.5907,-8.2287 -0.076,-3.8858 4.1945,-11.5507 12.0383,-13.7145 7.8438,-2.1638 1.2886,-4.9761 -3.2762,-3.4287 z"
       id="path4028"
       inkscape:connector-curvature="0"
       sodipodi:nodetypes="zccccszzccczz" />
    <path
       style="fill:#ffffff;fill-opacity:1;stroke:none"
       d="m 384.62451,958.80158 c -0.8386,3.4689 -2.1334,13.0288 -2.0572,16.9146 0.076,3.8858 2.362,7.7716 5.1049,7.8478 2.7429,0.076 4.2888,-4.4207 4.1906,-7.4668 -0.1524,-4.7239 -4.0058,-3.2744 -3.962,-0.381 0.068,4.5006 -1.1429,4.4192 -1.0667,1.7524 0.068,-2.3915 0.3078,-11.5901 1.2952,-15.6193 1.778,-7.2545 -2.6662,-6.5166 -3.5048,-3.0477 z"
       id="path4030"
       inkscape:connector-curvature="0"
       sodipodi:nodetypes="zssssssz" />
    <path
       style="fill:#cc9e61;fill-opacity:1;stroke:none"
       d="m 380.35781,940.51558 c -0.076,4.0381 3.2762,7.162 6.7049,7.0858 3.4286,-0.076 7.075,-2.4409 7.3906,-6.9335 0.2617,-3.7259 -2.5905,-7.543 -6.7049,-7.6953 -4.1144,-0.1524 -7.4668,3.2762 -7.3906,7.543 z"
       id="path4032"
       inkscape:connector-curvature="0"
       sodipodi:nodetypes="csssc" />
    <path
       style="fill:#ffffff;fill-opacity:1;stroke:none"
       d="m 429.73011,947.44898 c -6.6287,-1.6 -18.649,4.585 -17.9813,11.7336 0.6397,6.8481 5.1049,6.9334 8.4573,7.0858 3.3525,0.1524 15.2848,-3.1474 16.3813,0.3048 1.7916,5.6409 -15.3481,12.062 -24.9148,10.5145 -5.181,-0.8381 -5.7905,4.4191 -1.2952,4.0381 1.9363,-0.1641 11.6889,-0.5831 18.9287,-2.6278 7.2399,-2.0448 11.3957,-6.4733 11.3957,-11.3153 0,-8.0001 -8.2288,-5.4096 -12.4955,-5.3334 -4.2668,0.076 -9.6764,1.9048 -11.124,-0.381 -3.2667,-5.1579 6.4763,-12.1145 12.3431,-9.9811 2.9333,1.0667 4.6676,0.1175 4.5905,-0.981 -0.1143,-1.6286 -2.1143,-2.3334 -4.2858,-3.0572 z"
       id="path4034"
       inkscape:connector-curvature="0"
       sodipodi:nodetypes="csssssssssssc" />
    <path
       style="fill:#ffffff;fill-opacity:1;stroke:none"
       d="m 483.03831,891.58978 c -1.1272,-0.04 -1.8785,0.866 -2,1.6875 -0.1619,1.0952 0.8119,2.0463 3.25,3.875 3.1239,2.5143 5.6937,18.2098 8.0938,32.5625 2.4,14.3526 4.539,27.8344 4.8437,29.625 -6.6287,2.8952 -18.7467,10.0394 -16.1562,15.9062 1.0176,2.3046 4.8862,3.5066 8.5625,2.6875 3.6762,-0.8191 7.8749,-3.5155 11.875,-4.125 1.0667,3.6572 4.3466,10.9747 8.1562,10.5938 1.7524,-0.1143 3.8247,-1.861 3.8438,-3.1563 0.019,-1.2953 -2.025,-2.1455 -3.625,-2.0312 -2.6667,-0.076 -2.9607,-3.1184 -3.875,-5.9375 1.219,-0.3048 3.2785,-0.1391 6.25,1.1562 2.9715,1.2953 3.272,-2.5896 1.0625,-3.6562 -2.2096,-1.0667 -4.1943,-1.545 -8.1563,-1.4688 -1.7524,-3.3524 -2.2486,-6.1922 -2.9062,-8 2.8191,-1.2191 4.0475,-1.586 9,-1.2812 3.1238,0.5333 1.5319,-3.9825 -0.9063,-3.9063 -4.2667,0 -6.1085,0.4568 -9.1562,1.2188 -1.6209,-8.3569 -9.9744,-54.3878 -10.8125,-57.9688 -0.8381,-3.581 -2.5127,-5.3178 -6.0938,-7.375 -0.4476,-0.2571 -0.8742,-0.393 -1.25,-0.4062 z m 15.3438,71.875 c 0.9143,2.8952 1.3652,4.3353 1.5937,6.4687 -2.2857,0.3048 -12.4937,5.1625 -14.0937,3.5625 -1.6,-1.6 5.6427,-7.9741 12.5,-10.0312 z"
       id="path4036"
       inkscape:connector-curvature="0" />
    <path
       style="fill:#ffffff;fill-opacity:1;stroke:none"
       d="m 557.50391,959.71588 c 0.076,-4.3429 -4.1143,-6.2477 -12.5716,-6.1715 -10.6669,0 -23.6957,7.162 -23.8481,13.7907 -0.1524,6.6287 9.524,10.4383 15.9241,10.1335 3.2001,-0.1524 8.8573,-1.2 13.5717,-2.5524 4.7144,-1.3524 8.4859,-3.0096 10.0478,-3.7715 1.5619,-0.7619 1.5238,-3.581 -0.2952,-3.9715 -1.8191,-0.3905 -4.2001,1.3429 -5.8001,2.0667 -3.2001,1.4477 -10.5145,3.962 -17.3718,3.962 -6.8573,0 -11.2764,-2.4382 -11.5812,-5.4858 -0.3047,-3.0477 8.0764,-9.8288 18.7432,-9.6764 3.8477,0.076 7.8669,-0.7238 8.8288,2.0191 0.4836,1.379 -2.962,3.4667 -5.8573,3.6953 -3.581,0.3048 -6.6286,0.5333 -9.9049,0.4572 -3.2763,-0.076 -4.8763,3.581 2.0572,3.4286 3.4667,-0.076 8.5716,-0.3429 12.2097,-1.6381 3.6382,-1.2953 5.8097,-3.6191 5.8477,-6.2859 z"
       id="path4038"
       inkscape:connector-curvature="0"
       sodipodi:nodetypes="ccccscsccccsczcscc" />
    <path
       style="fill:#ffffff;fill-opacity:1;stroke:none"
       d="m 624.61751,937.66888 c -6.2496,2.0473 -31.4635,14.8697 -31.679,29.2007 -1.09,14.5717 26.0759,17.779 35.9891,17.6712 9.9131,-0.1077 15.193,-0.9697 19.1798,-2.2628 3.9868,-1.293 5.172,-6.3573 -2.5861,-3.879 -3.1248,0.9698 -10.5596,2.155 -16.2705,2.155 -5.7108,0 -32.5276,-2.1552 -32.2177,-12.6069 -0.2155,-11.3139 19.503,-23.2744 28.3387,-26.5069 3.6517,-1.336 10.045,0.036 9.9805,-2.7207 -0.082,-3.5031 -7.9871,-1.5355 -10.7348,-1.0506 z"
       id="path4040"
       inkscape:connector-curvature="0"
       sodipodi:nodetypes="cccccccccc" />
    <path
       style="fill:#ffffff;fill-opacity:1;stroke:none"
       d="m 662.22281,961.48198 c -6.1418,6.2496 -5.3875,21.3348 4.9566,21.3348 10.3442,0 23.7591,-9.5936 23.4899,-19.2875 -0.3233,-11.6403 -10.9907,-10.0209 -16.5938,-9.8054 -5.6031,0.2155 -4.2023,5.0643 1.724,3.9868 5.9264,-1.0775 11.4217,0.3232 11.0985,6.1418 -0.3233,5.8186 -11.3171,16.087 -18.1023,15.4085 -9.6977,-0.9698 -6.8908,-9.8015 -4.9566,-12.4992 4.0946,-5.7108 2.0473,-7.5426 -1.6163,-5.2798 z"
       id="path4042"
       inkscape:connector-curvature="0"
       sodipodi:nodetypes="cssszsssc" />
    <path
       style="fill:#ffffff;fill-opacity:1;stroke:none"
       d="m 706.07771,956.09438 c -1.5085,6.5729 -5.0158,19.2948 1.0776,20.7961 7.4348,1.8317 12.1759,-13.038 18.7487,-12.4992 6.5729,0.5387 4.5083,17.961 11.314,18.641 7.8344,0.7828 8.4046,-7.8659 12.9302,-7.8659 4.5255,0 5.603,6.3574 14.3309,6.3574 6.6841,0 9.5899,-2.2628 12.0682,-3.6636 2.4783,-1.4007 1.724,-5.7108 -3.7713,-3.017 -4.3323,2.1237 -4.8488,3.017 -9.0511,2.8015 -4.2024,-0.2155 -8.8364,-6.7654 -13.3612,-6.6806 -6.5753,0.1233 -9.4822,8.2969 -12.0682,8.2969 -4.972,0 -1.5128,-18.2894 -10.8829,-19.7186 -7.1881,-1.0963 -15.8395,13.469 -17.8868,12.2837 -2.0473,-1.1852 -0.6465,-11.0984 0.7543,-14.2232 1.4007,-3.1248 -3.0171,-6.3573 -4.2024,-1.5085 z"
       id="path4044"
       inkscape:connector-curvature="0"
       sodipodi:nodetypes="csssssssssssssc" />
    <path
       style="fill:#ffffff;fill-opacity:1;stroke:none"
       d="m 792.75711,924.12098 c -1.1179,0.054 -2.2155,1.4323 -2,4.7188 -0.2155,5.9263 0.5085,32.9734 -1,38.4687 -0.7004,1.4008 -1.3567,1.3481 -2.2188,2.1563 0.1617,0.6465 0.8179,0.3147 0.6563,1.5 -0.1078,2.4782 -0.111,5.1822 -0.2188,6.9062 -1.5085,1.4008 -2.6595,0.901 -2.875,2.625 -0.1077,1.9395 2.333,2.3287 2.6563,3.4063 0.3232,1.0775 0.6337,4.1907 2.25,4.4062 1.6163,0.2155 2.153,-0.4247 1.9375,-2.6875 0,-1.9395 -0.1024,-3.8923 -0.1563,-5.5625 3.4481,-0.9698 16.0453,-3.1652 15.9375,-7.9062 -0.1077,-4.7411 -7.1491,-5.1843 -13.9375,-4.9688 0.1617,-2.6938 1.0356,-7.6259 1.0625,-13.7812 0.039,-8.7985 0.071,-24.0691 0.125,-26.0625 0.054,-1.9935 -1.1008,-3.2727 -2.2187,-3.2188 z m 5.3125,46.7813 c 2.2897,0.027 4.2726,0.4041 4.2187,1.5625 0.2155,1.4007 -8.7813,3.4439 -10.3437,3.875 -0.2694,-1.0776 0.1336,-3.721 0.1875,-4.9063 1.0775,-0.2424 3.6478,-0.5582 5.9375,-0.5312 z"
       id="path4046"
       inkscape:connector-curvature="0" />
    <path
       style="fill:#ffffff;fill-opacity:1;stroke:none"
       d="m 821.04871,963.90638 c -1.0373,2.7076 -6.2496,12.8763 -6.3034,18.3178 -0.054,5.4414 2.1406,6.6429 3.6096,6.95 2.1009,0.4391 4.498,-2.7178 5.6031,-4.6334 1.6163,-2.8015 -1.8097,-4.5317 -3.0709,-2.6399 -0.6465,0.9698 -0.8081,3.1248 -1.724,2.4244 -0.9159,-0.7004 -0.431,-4.4178 0.5387,-6.3034 1.3668,-2.6577 4.2514,-11.0545 5.6031,-13.3074 0.9698,-1.6162 0.1347,-4.1619 -1.0438,-4.6804 -0.803,-0.3533 -2.175,1.1647 -3.2124,3.8723 z"
       id="path4048"
       inkscape:connector-curvature="0"
       sodipodi:nodetypes="zssssssssz" />
    <path
       style="fill:#cc9e61;fill-opacity:1;stroke:none"
       d="m 840.22581,931.21478 c -2.4773,-0.011 -6.7218,2.743 -8.2812,3.875 -4.7979,-0.4414 -11.953,-0.9786 -19.125,-0.75 2.5333,5.2825 7.3471,9.2608 9.125,10.5 -1.182,1.8377 -4.9893,7.4172 -5.3125,11.7812 3.0709,-0.7004 10.7848,-3.3158 15.6875,-5.0937 2.155,1.4546 7.7964,3.8855 12.7187,5.75 0.1616,-2.3167 -0.2187,-10.4442 -0.2187,-12.4375 1.4546,-0.8621 5.5808,-3.2858 6.2812,-5.6563 -2.8238,-1.2419 -7.1983,-2.2628 -8.4375,-2.4375 -0.431,-1.6701 -1.0906,-4.346 -2.4375,-5.5312 z m -1.2187,2.3437 c 0.9159,0.5725 1.3729,1.7134 1.75,2.6563 -1.7753,-0.2232 -4.0075,-0.6566 -5.9688,-0.75 0.9159,-0.7004 1.7405,-1.1857 4.2188,-1.9063 z m -23.5313,2.375 c 1.5282,0.1747 10.4776,0.6972 13.6563,1.3438 -1.2392,1.0775 -4.0831,3.805 -5.9688,5.9062 -2.8159,-1.9636 -5.4153,-4.9197 -7.6875,-7.25 z m 16.5938,1.5313 c 1.8671,0.1142 6.3255,0.7936 9.1875,1.2812 0.2884,1.45 0.6908,3.6337 0.9062,5.25 -1.7509,1.1045 -7.8449,4.68 -10,5.2188 -1.5893,-0.8621 -4.9128,-3.0454 -6.9062,-4.5 1.0236,-1.5624 4.4419,-5.4721 6.8125,-7.25 z m 11.3437,1.5 c 1.3469,0.2666 3.7255,0.7011 5,0.9062 -0.9106,0.9837 -3.3513,2.8502 -4.375,3.2813 -0.1616,-1.2392 -0.194,-2.4635 -0.625,-4.1875 z m -0.7187,7.0625 c 0.431,2.8015 0.9827,6.7285 0.875,8.9375 -1.4008,-0.5388 -6.6952,-2.8299 -9.2813,-4.5 1.5508,-0.8581 5.497,-2.7135 8.4063,-4.4375 z m -18.6875,0.375 c 1.9395,1.5085 3.9408,2.6811 5.7187,3.8125 -2.4783,1.1314 -7.7299,3.2478 -10.625,3.7812 1.4008,-3.448 3.7749,-6.3007 4.9063,-7.5937 z"
       id="path4050"
       inkscape:connector-curvature="0" />
    <path
       sodipodi:nodetypes="ccccscsccccsczcscc"
       inkscape:connector-curvature="0"
       id="path4052"
       d="m 860.20001,974.74138 c 0.051,-3.3916 -2.4463,-5.8489 -8.1393,-5.7894 -8.3657,0 -14.6578,6.2396 -14.7604,11.4162 -0.1026,5.1766 5.4413,8.3672 9.7496,8.1292 2.1541,-0.119 7.0398,-0.7216 10.2133,-1.7778 3.1735,-1.0561 6.1433,-2.5658 7.1947,-3.1608 2.5599,-1.1338 1.8878,-3.8741 0.6632,-4.179 -1.2245,-0.305 -4.7668,1.9107 -5.8438,2.476 -2.1541,1.1305 -6.7546,2.663 -11.3706,2.663 -4.616,0 -6.621,-1.473 -6.8261,-3.853 -0.2052,-2.3801 5.2211,-7.7835 9.169,-7.7722 2.5901,0.06 5.2955,-0.1343 5.943,2.0078 0.3256,1.0769 -2.6403,2.815 -4.5893,2.9935 -2.4106,0.238 -2.5225,-0.015 -4.728,-0.074 -2.2054,-0.059 -3.498,4.4129 1.1693,4.2939 2.3337,-0.06 6.201,-0.6988 8.65,-1.7103 2.4491,-1.0115 3.4798,-3.5806 3.5054,-5.6631 z"
       style="fill:#ffffff;fill-opacity:1;stroke:none" />
    <path
       style="fill:#ffffff;fill-opacity:1;stroke:none"
       d="m 883.77861,982.72868 c 4.5256,-5.0644 14.9437,-9.9197 19.9537,-9.812 3.4481,0.1078 10.0362,0.038 12.8378,0.5769 2.8015,0.5387 0.5931,4.0434 -2.2085,3.8279 -2.8015,-0.2155 -10.9907,-0.5388 -14.5465,0.5387 -3.5558,1.0776 -12.6513,4.6625 -18.7487,13.3612 -1.7926,2.3368 -3.9607,0.9317 -3.0987,-1.9776 0.5953,-2.0331 1.4377,-4.2023 1.4943,-4.987 0.3233,-1.5085 1.0052,-3.9469 0.8447,-6.0307 -0.1605,-2.0838 -0.3608,-2.7611 -1.5228,-3.2351 -1.162,-0.4741 -3.0572,-0.2877 -3.8648,0.1178 -3.1771,1.5727 -4.3743,-2.6927 -2.0038,-3.6625 2.3706,-0.9697 8.656,-2.2977 10.2353,1.9581 1.5631,2.6034 0.8228,7.0497 0.628,9.3243 z"
       id="path4054"
       inkscape:connector-curvature="0"
       sodipodi:nodetypes="cccccccczscccc" />
    <path
       inkscape:connector-curvature="0"
       style="fill:#cc9e61;fill-opacity:1;stroke:none"
       d="m 94.415234,864.55551 c -49.37236,0 -86.1049703,38.7153 -86.7187503,86.25 -0.53144,41.1582 37.3464003,85.00769 86.7187503,85.31249 51.200956,-0.3048 85.608626,-44.77819 85.781246,-82.87499 0.2293,-50.6051 -42.19948,-88.6875 -85.781246,-88.6875 z m -24.875,21.84375 c 13.26101,-0.45979 25.31183,5.55835 28.3125,19.59375 5.807746,8.7116 -20.51906,18.9561 -20.90625,26.3125 -0.38718,7.3565 11.99258,11.4316 18.1875,19.5625 4.06542,5.6141 -16.6472,18.789 -43.75,-2.3125 -9.87315,-12.1962 -12.7765,-25.5794 -6.96875,-31 7.74365,-6.5821 19.74179,8.72475 24.96875,8.53125 5.22697,-0.1937 8.527,-24.78885 18.59375,-26.53125 -1.93591,-4.6462 -38.46099,-9.93665 -53.8125,10.84375 -15.35151,20.7803 -7.62871,54.75405 23.21875,79.78125 30.84747,25.02719 75.900416,17.03339 84.031246,11.99999 26.13484,-18.00409 -25.95895,-39.90174 -29.25,-42.03124 -2.3231,-2.7102 -8.6965,-3.66255 -4.4375,-11.40625 4.25902,-7.7436 21.09746,-19.57255 18,-24.21875 -3.09746,-4.6461 -22.86042,-9.0945 -20.34375,-18 2.51667,-8.9055 24.70502,-10.07235 37,-4.84375 12.48857,7.1644 25.94334,24.008 17.8125,33.6875 -4.25901,5.0334 -17.82414,-7.3368 -24.40625,-6.5625 -6.58211,0.7744 -0.969,24.19155 -8.90625,29.03125 8.13084,6.1949 43.35438,25.9533 18.1875,45.31254 -18.19758,13.1642 -63.097916,27.884 -96.406246,-3.875 -33.30834,-31.75914 -30.3684,-71.06934 -14.6875,-94.68754 7.84045,-11.80905 22.30149,-18.72771 35.5625,-19.1875 z m 19.25,16.25 c -1.70769,0.0812 -3.51315,1.01722 -5.5625,3.375 -2.05568,2.3615 -4.04971,12.98025 -10.375,21.59375 9.68679,-8.3982 10.84724,-20.31575 17.625,-24.78125 -0.54991,-0.1381 -1.11827,-0.21457 -1.6875,-0.1875 z m 59.124996,5.46875 c 2.63589,2.7173 8.95662,12.2352 9.96875,15.1875 1.70493,4.007 2.26438,6.8162 2.53125,11.5625 1.38748,-2.9135 1.2624,-6.9988 -0.0937,-10.9375 -1.01718,-2.9608 -8.77675,-14.069 -12.40625,-15.8125 z m -103.749996,11.1875 c -1.87233,2.6285 -2.43011,6.73015 -1.78125,10.84375 0.48776,3.0922 6.16588,15.37155 9.4375,17.71875 -2.12404,-3.1338 -6.67226,-13.63545 -7.15625,-16.71875 -0.98328,-4.2422 -1.06132,-7.12305 -0.5,-11.84375 z m 81.874996,11.90625 c -5.93061,8.8898 -15.20267,14.3858 -16.71875,17.125 -2.01921,3.643 -1.80252,6.02815 -0.53125,7.90625 1.87813,-7.8964 12.67149,-13.05645 17.25,-25.03125 z"
       id="path3040-0-6" />
  </g>
</svg>
